<svg xmlns="http://www.w3.org/2000/svg" version="1.1" xmlns:xlink="http://www.w3.org/1999/xlink" xmlns:svgjs="http://svgjs.dev/svgjs" width="1000" height="270" viewBox="0 0 1000 270"><g transform="matrix(1,0,0,1,-0.6060606060606233,-0.27871569739406254)"><svg viewBox="0 0 396 107" data-background-color="#ffffff" preserveAspectRatio="xMidYMid meet" height="270" width="1000" xmlns="http://www.w3.org/2000/svg" xmlns:xlink="http://www.w3.org/1999/xlink"><g id="tight-bounds" transform="matrix(1,0,0,1,0.2400000000000091,0.11045399859690974)"><svg viewBox="0 0 395.52 106.77909200280618" height="106.77909200280618" width="395.52"><g><svg viewBox="0 0 395.52 106.77909200280618" height="106.77909200280618" width="395.52"><g transform="matrix(1,0,0,1,0,65.05509194468564)"><svg viewBox="0 0 395.52 41.72400005812053" height="41.72400005812053" width="395.52"><g><svg viewBox="0 0 395.52 41.72400005812053" height="41.72400005812053" width="395.52"><g><svg viewBox="0 0 395.52 41.72400005812053" height="41.72400005812053" width="395.52"><g transform="matrix(1,0,0,1,0,0)"><svg width="395.52" viewBox="1.4779900312423706 -19.631378173828125 424.81976318359375 44.81486511230469" height="41.72400005812053" data-palette-color="#000000"><path d="M1.478 12.243l0.556-2.221c1.537-0.119 2.6-0.437 3.189-0.954 0.588-0.51 0.961-1.453 1.119-2.831v0l2.406-20.59c0.12-1.047 0.078-1.766-0.125-2.158-0.204-0.386-0.667-0.62-1.39-0.703v0l-1.67-0.09-0.077-0.21 0.585-2.117c0.424 0.049 0.75 0.103 0.978 0.162v0c1.953 0.291 3.436 0.494 4.449 0.61v0c1.378 0.158 3.147 0.209 5.307 0.154v0l-0.452 2.193c-0.998 0.047-1.716 0.163-2.154 0.347-0.436 0.178-0.759 0.531-0.966 1.057-0.207 0.52-0.415 1.399-0.624 2.636v0l-1.207 7.914 8.24 0.993c2.06 0.236 4.5 0.347 7.32 0.334v0l1.07-8.916c0.12-1.047 0.078-1.766-0.125-2.158-0.211-0.386-0.674-0.621-1.389-0.702v0c-0.457-0.052-1.017-0.083-1.681-0.092v0l-0.076-0.21 0.594-2.116c0.354 0.074 1.002 0.182 1.946 0.323 0.943 0.141 1.892 0.267 2.846 0.376v0c1.57 0.18 3.547 0.255 5.932 0.226v0l-0.452 2.193c-1.224 0.021-2.072 0.196-2.546 0.524-0.467 0.329-0.771 0.965-0.913 1.908v0c-0.615 3.674-1.231 7.619-1.847 11.837-0.617 4.224-1.05 7.415-1.297 9.575v0c-0.138 1.205-0.081 2.031 0.17 2.475 0.244 0.444 0.791 0.714 1.638 0.811v0c0.397 0.045 1.142 0.08 2.233 0.105v0l0.067 0.209-0.696 2.205c-0.457-0.052-0.816-0.11-1.077-0.173v0c-2.145-0.313-3.791-0.534-4.936-0.666v0l-5.655-0.546 0.69-2.156c1.083 0.09 1.895 0.032 2.435-0.174 0.533-0.201 0.94-0.651 1.222-1.35 0.281-0.699 0.508-1.801 0.68-3.304v0l0.846-7.402-7.455-0.903c-0.818-0.06-1.971-0.135-3.457-0.224-1.48-0.089-3.063-0.146-4.751-0.172v0l-1.194 8.761c-0.153 1.338-0.109 2.245 0.131 2.723 0.247 0.478 0.795 0.765 1.643 0.862v0c0.391 0.045 1.132 0.079 2.223 0.104v0l0.076 0.21-0.695 2.205c-0.294-0.067-0.847-0.164-1.658-0.29-0.818-0.127-1.65-0.239-2.498-0.336v0c-1.504-0.172-3.121-0.29-4.851-0.354-1.737-0.065-2.63-0.036-2.677 0.086zM51.712 17.495l-0.118-0.353 0.379-1.903c1.685 0.024 2.852-0.064 3.5-0.264 0.649-0.207 1.001-0.603 1.055-1.187v0c0.062-0.657-0.014-1.458-0.226-2.402v0l-1.12-5.518c-0.78-0.107-2.481-0.283-5.103-0.529v0c-1.573-0.147-3.371-0.182-5.394-0.103v0l-2.301 4.937c-0.382 0.861-0.591 1.488-0.628 1.879v0c-0.068 0.724 0.116 1.263 0.551 1.619 0.429 0.348 1.168 0.572 2.218 0.669v0l2.797 0.263 0.081 0.208-0.497 2.093c-0.389-0.07-1.282-0.221-2.68-0.452-1.398-0.231-2.77-0.41-4.118-0.537v0c-1.215-0.114-2.338-0.202-3.37-0.265-1.039-0.064-1.722-0.094-2.05-0.092v0l0.605-2.274c0.932-0.013 1.702-0.266 2.311-0.757 0.608-0.485 1.237-1.374 1.887-2.666v0l11.933-24.232 3.173-0.536 0.399 0.037c0.126 0.802 0.456 2.668 0.992 5.597 0.536 2.923 1.202 6.39 1.998 10.402 0.796 4.005 1.582 7.698 2.357 11.078v0c0.278 1.251 0.722 2.153 1.333 2.706 0.611 0.553 1.631 0.963 3.058 1.231v0l0.082 0.198-0.538 1.989c-0.392-0.037-1.099-0.13-2.123-0.279-1.031-0.143-2.054-0.263-3.07-0.358v0c-1.573-0.147-3.096-0.223-4.569-0.228-1.466-0.003-2.401 0.006-2.804 0.029zM45.787 2.908l4.331 0.406c1.181 0.111 2.713 0.171 4.593 0.18v0l-2.677-13.238-0.338-0.032zM67.617 18.947l0.469-2.24c1.298-0.091 2.209-0.406 2.734-0.946 0.517-0.534 0.832-1.509 0.945-2.924v0l1.695-20.661c0.084-1.05 0.017-1.768-0.2-2.152-0.217-0.378-0.688-0.597-1.412-0.654v0c-0.326-0.026-0.653-0.035-0.981-0.028-0.335 0.007-0.566 0.005-0.692-0.005v0l-0.084-0.208 0.511-2.136c0.389 0.064 1.124 0.156 2.205 0.276 1.081 0.119 2.179 0.224 3.296 0.313v0c0.891 0.071 1.905 0.092 3.045 0.062 1.139-0.023 1.894-0.053 2.264-0.091v0l-0.376 2.207c-1.093 0.04-1.858 0.193-2.294 0.46-0.435 0.26-0.708 0.582-0.819 0.968-0.112 0.392-0.278 1.356-0.501 2.889v0c-0.421 2.769-0.824 5.94-1.209 9.514-0.378 3.568-0.675 6.714-0.892 9.439v0c-0.094 1.176-0.065 2.028 0.087 2.555 0.159 0.521 0.501 0.886 1.026 1.095 0.532 0.21 1.452 0.366 2.762 0.471v0c2.007 0.16 3.489 0.111 4.445-0.148 0.963-0.251 1.722-0.833 2.276-1.745 0.548-0.913 1.101-2.404 1.66-4.472v0l2.193-0.076 0.12 0.26c-0.135 0.518-0.431 1.681-0.89 3.49-0.459 1.816-0.886 3.731-1.28 5.747v0l-0.262 0.27c-0.952-0.136-2.906-0.382-5.86-0.738-2.962-0.35-5.413-0.602-7.353-0.756v0c-1.542-0.123-2.949-0.168-4.223-0.135-1.273 0.032-2.075 0.065-2.405 0.099zM91.753 20.805l0.439-2.246c1.297-0.108 2.203-0.436 2.721-0.983 0.51-0.541 0.812-1.52 0.905-2.937v0l1.412-20.682c0.069-1.051-0.007-1.768-0.229-2.15-0.222-0.375-0.696-0.587-1.421-0.635v0c-0.326-0.021-0.653-0.026-0.981-0.014-0.335 0.011-0.565 0.013-0.692 0.004v0l-0.087-0.206 0.482-2.143c0.39 0.059 1.127 0.141 2.209 0.246 1.082 0.105 2.182 0.194 3.299 0.267v0c0.891 0.059 1.906 0.065 3.046 0.021 1.138-0.039 1.893-0.079 2.262-0.122v0l-0.346 2.212c-1.093 0.055-1.855 0.219-2.287 0.491-0.432 0.266-0.7 0.592-0.806 0.979-0.106 0.394-0.26 1.359-0.461 2.896v0c-0.383 2.774-0.743 5.951-1.079 9.53-0.329 3.573-0.583 6.723-0.763 9.45v0c-0.078 1.177-0.037 2.029 0.122 2.554 0.166 0.519 0.513 0.879 1.041 1.08 0.535 0.202 1.457 0.347 2.768 0.433v0c2.009 0.132 3.49 0.063 4.443-0.208 0.959-0.264 1.71-0.856 2.252-1.776 0.535-0.92 1.068-2.418 1.599-4.495v0l2.192-0.106 0.123 0.259c-0.128 0.519-0.408 1.687-0.842 3.502-0.434 1.822-0.835 3.743-1.202 5.764v0l-0.258 0.273c-0.954-0.123-2.91-0.342-5.87-0.657-2.966-0.309-5.42-0.527-7.363-0.656v0c-1.543-0.102-2.951-0.128-4.224-0.077-1.273 0.05-2.074 0.094-2.404 0.132zM115.288 22.407l0.414-2.251c1.56-0.208 2.629-0.587 3.207-1.136 0.571-0.543 0.894-1.507 0.969-2.892v0l1.182-20.696c0.058-1.052-0.027-1.767-0.253-2.147-0.227-0.373-0.703-0.579-1.428-0.619v0l-2.072-0.013-0.089-0.205 0.468-2.148c0.526 0.029 0.934 0.068 1.225 0.117v0l4.628 0.353c1.478 0.081 3.376 0.034 5.696-0.139v0l-0.322 2.216c-1.353 0.086-2.28 0.306-2.78 0.659-0.493 0.354-0.799 1.004-0.918 1.953v0c-0.41 3.837-0.796 7.845-1.158 12.025-0.356 4.187-0.588 7.265-0.696 9.236v0c-0.074 1.345 0.024 2.248 0.292 2.71 0.275 0.462 0.839 0.717 1.691 0.763v0c0.559 0.031 1.434 0.028 2.625-0.007v0l0.088 0.206-0.573 2.242c-0.459-0.025-0.821-0.062-1.085-0.11v0c-2.293-0.192-4.082-0.323-5.367-0.394v0c-1.611-0.088-3.525 0.004-5.744 0.277zM134.91 2.316l-0.544-0.126c0.061-0.591 0.12-1.479 0.175-2.664v0c0.086-1.838 0.117-3.542 0.09-5.112-0.02-1.563-0.036-2.558-0.049-2.985v0l3.478-0.527 0.332 0.406c-0.096 0.623-0.357 1.985-0.783 4.087-0.433 2.109-0.912 4.205-1.438 6.29v0zM150.012 24.014c-1.379-0.052-2.64-0.222-3.784-0.512-1.143-0.29-2.079-0.595-2.807-0.916-0.728-0.327-1.092-0.508-1.091-0.541v0l-0.231-0.499c0.041-0.199 0.126-0.689 0.255-1.472 0.13-0.789 0.258-1.815 0.385-3.077 0.134-1.263 0.227-2.6 0.281-4.013v0l2.227-0.167c-0.092 2.465 0.003 4.296 0.285 5.495 0.289 1.198 0.868 2.037 1.737 2.517 0.87 0.473 2.227 0.744 4.072 0.813v0c2.072 0.078 3.749-0.343 5.031-1.263 1.289-0.926 1.965-2.228 2.028-3.907v0c0.037-0.986-0.266-1.885-0.91-2.696-0.643-0.818-1.417-1.524-2.322-2.118-0.898-0.594-2.232-1.401-4.002-2.422v0c-1.679-0.95-3.048-1.815-4.106-2.595-1.058-0.787-1.938-1.704-2.639-2.751-0.701-1.047-1.027-2.243-0.977-3.589v0c0.064-1.712 0.622-3.249 1.674-4.61 1.058-1.361 2.465-2.413 4.221-3.155 1.755-0.735 3.686-1.063 5.791-0.984v0c1.319 0.049 2.535 0.185 3.647 0.407 1.112 0.222 1.992 0.441 2.637 0.659 0.652 0.225 1.06 0.373 1.225 0.446v0l0.138 0.306c-0.041 0.192-0.141 0.649-0.301 1.369-0.16 0.715-0.344 1.712-0.552 2.992-0.215 1.28-0.397 2.59-0.548 3.932v0l-1.936 0.128-0.281-0.261c0.038-0.132 0.083-0.434 0.134-0.905 0.051-0.478 0.089-1.031 0.113-1.657v0c0.065-1.739-0.32-2.954-1.155-3.646-0.828-0.691-2.345-1.078-4.55-1.161v0c-1.805-0.068-3.311 0.33-4.517 1.192-1.2 0.862-1.825 1.966-1.876 3.312v0c-0.049 1.319 0.474 2.483 1.571 3.491 1.103 1.015 2.732 2.14 4.887 3.375v0c2.098 1.166 3.693 2.123 4.786 2.871 1.093 0.748 2.049 1.665 2.869 2.749 0.813 1.085 1.194 2.316 1.143 3.696v0c-0.069 1.845-0.651 3.481-1.745 4.908-1.087 1.42-2.569 2.509-4.446 3.266-1.869 0.751-3.99 1.081-6.361 0.993zM183.891 24.345c-1.02-0.016-2.124 0.049-3.314 0.198-1.182 0.141-1.957 0.242-2.325 0.303v0l0.336-2.265c1.518-0.269 2.545-0.69 3.081-1.261 0.536-0.565 0.815-1.541 0.837-2.927v0l0.38-20.727c0.017-1.053-0.095-1.765-0.336-2.136-0.241-0.364-0.725-0.552-1.451-0.563v0c-0.327-0.005-0.654 0.006-0.981 0.035-0.334 0.028-0.564 0.041-0.691 0.039v0l-0.097-0.202 0.375-2.164c0.393 0.04 1.132 0.085 2.218 0.135 1.086 0.051 2.172 0.085 3.259 0.102v0c1.12 0.018 2.263 0.009 3.431-0.025 1.174-0.028 1.974-0.055 2.401-0.082v0c3.126 0.05 5.519 0.738 7.178 2.065 1.659 1.327 2.469 3.193 2.431 5.599v0c-0.026 1.64-0.553 3.112-1.58 4.415-1.027 1.297-2.451 2.328-4.27 3.093v0c2.391 0.565 4.253 1.515 5.585 2.849 1.325 1.341 1.974 2.932 1.945 4.772v0c-0.027 1.68-0.585 3.244-1.675 4.694-1.097 1.449-2.538 2.597-4.326 3.441-1.794 0.838-3.71 1.241-5.75 1.209v0c-0.887-0.014-1.905-0.11-3.056-0.289v0c-1.877-0.197-3.079-0.299-3.605-0.308zM186.487 7.055c0.493 0.041 1.325 0.121 2.496 0.239 1.165 0.112 2.127 0.191 2.887 0.236v0c-0.002 0.1 0.428-0.063 1.288-0.489 0.86-0.433 1.645-1.114 2.353-2.043 0.708-0.929 1.075-2.183 1.1-3.763v0c0.034-2.106-0.651-3.681-2.055-4.723-1.397-1.042-3.575-1.587-6.535-1.634v0c-0.333-0.005-0.558 0.068-0.674 0.219-0.116 0.145-0.194 0.447-0.234 0.906v0c-0.25 3.156-0.459 6.84-0.626 11.052zM186.345 9.673l-0.337 9.225c-0.02 1.253 0.392 2.15 1.237 2.691 0.845 0.54 2.29 0.827 4.337 0.859v0c1.973 0.031 3.535-0.497 4.686-1.586 1.157-1.082 1.751-2.562 1.781-4.442v0c0.028-1.773-0.508-3.239-1.61-4.396-1.102-1.151-2.753-1.941-4.953-2.369v0zM220.739 25.183c-2.667 0.007-5.038-0.627-7.115-1.901-2.077-1.281-3.695-3.08-4.854-5.397-1.153-2.317-1.733-4.955-1.741-7.916v0c-0.008-3.227 0.697-6.169 2.117-8.825 1.426-2.65 3.381-4.746 5.864-6.286 2.483-1.533 5.221-2.304 8.214-2.311v0c2.733-0.007 5.155 0.626 7.265 1.901 2.11 1.281 3.761 3.07 4.954 5.367 1.186 2.304 1.783 4.935 1.79 7.895v0c0.008 3.227-0.714 6.175-2.166 8.846-1.46 2.671-3.447 4.776-5.964 6.315-2.516 1.533-5.304 2.304-8.364 2.312zM222.262 22.659c2.073-0.005 3.915-0.554 5.526-1.644 1.611-1.084 2.86-2.601 3.748-4.55 0.882-1.942 1.319-4.163 1.313-6.663v0c-0.007-2.8-0.491-5.275-1.45-7.427-0.966-2.157-2.297-3.844-3.993-5.059-1.697-1.209-3.648-1.81-5.855-1.805v0c-2.007 0.005-3.792 0.553-5.355 1.644-1.557 1.091-2.77 2.607-3.638 4.55-0.868 1.942-1.299 4.167-1.293 6.673v0c0.007 2.793 0.474 5.269 1.399 7.427 0.932 2.151 2.23 3.834 3.894 5.049 1.663 1.209 3.565 1.811 5.705 1.805zM255.136 24.748c-2.666 0.059-5.05-0.529-7.151-1.762-2.101-1.241-3.754-3.008-4.958-5.302-1.198-2.294-1.829-4.921-1.894-7.88v0c-0.071-3.226 0.577-6.181 1.945-8.865 1.375-2.678 3.288-4.81 5.74-6.399 2.452-1.581 5.175-2.405 8.168-2.47v0c2.733-0.06 5.166 0.526 7.3 1.759 2.135 1.24 3.82 2.996 5.058 5.27 1.231 2.28 1.879 4.9 1.943 7.859v0c0.071 3.226-0.594 6.188-1.994 8.886-1.408 2.698-3.354 4.842-5.84 6.43-2.486 1.582-5.258 2.407-8.317 2.474zM256.61 22.195c2.073-0.046 3.904-0.63 5.492-1.751 1.589-1.115 2.809-2.656 3.659-4.622 0.844-1.959 1.238-4.188 1.183-6.688v0c-0.062-2.799-0.593-5.265-1.593-7.396-1.007-2.138-2.371-3.799-4.091-4.981-1.72-1.176-3.683-1.739-5.889-1.691v0c-2.006 0.044-3.78 0.627-5.322 1.748-1.536 1.121-2.719 2.661-3.549 4.619-0.83 1.959-1.218 4.191-1.163 6.697v0c0.062 2.793 0.576 5.259 1.543 7.398 0.974 2.132 2.304 3.79 3.991 4.973 1.686 1.176 3.599 1.741 5.739 1.694zM279.816-3.22c-0.043-1.052-0.195-1.757-0.457-2.114-0.261-0.35-0.755-0.51-1.48-0.48v0c-0.326 0.013-0.652 0.043-0.978 0.09-0.332 0.047-0.561 0.073-0.687 0.078v0l-0.108-0.195 0.251-2.182c0.394 0.017 1.135 0.02 2.222 0.009 1.087-0.011 2.174-0.039 3.26-0.083v0c0.893-0.036 1.903-0.138 3.03-0.304 1.128-0.159 1.873-0.28 2.237-0.361v0l-0.109 2.236c-1.211 0.243-2.038 0.58-2.481 1.012-0.443 0.432-0.661 1.125-0.656 2.079v0l0.274 21.186c0.02 1.314 0.186 2.198 0.499 2.652 0.319 0.447 0.921 0.653 1.806 0.617v0c0.493-0.02 0.952-0.056 1.377-0.106 0.425-0.051 0.703-0.095 0.835-0.135v0l0.108 0.196-0.347 2.286c-0.434-0.016-1.242-0.016-2.422-0.001-1.187 0.015-2.407 0.048-3.659 0.099v0l-5.673 0.282 0.409-2.239c1.048-0.143 1.821-0.341 2.318-0.595 0.504-0.247 0.845-0.622 1.025-1.123 0.173-0.501 0.24-1.231 0.201-2.19v0zM285.176 6.99l8.458-9.543c0.978-1.061 1.452-1.937 1.424-2.63v0c-0.035-0.853-1.091-1.303-3.167-1.352v0l-0.108-0.186 0.253-2.142c0.401 0.017 1.22 0.05 2.456 0.1 1.236 0.05 2.231 0.059 2.984 0.028v0c0.793-0.032 1.674-0.095 2.644-0.188 0.964-0.086 1.595-0.152 1.894-0.197v0l0.204 0.342-0.257 2.032c-0.846 0.201-1.621 0.58-2.326 1.136-0.705 0.556-1.765 1.637-3.181 3.242v0l-7.603 8.657 8.734 10.473c1.242 1.497 2.345 2.537 3.31 3.118 0.965 0.588 2.023 0.858 3.176 0.811v0l0.198 0.192-0.222 1.69c-0.364 0.082-1.075 0.224-2.134 0.428-1.059 0.21-1.705 0.32-1.938 0.329v0c-0.793 0.032-1.68-0.302-2.663-1.002-0.983-0.701-1.995-1.707-3.036-3.019v0l-9.121-11.628zM315.832 22.385c-1.378 0.078-2.649 0.026-3.815-0.156-1.165-0.181-2.126-0.398-2.881-0.649-0.756-0.258-1.134-0.404-1.137-0.437v0l-0.277-0.475c0.022-0.202 0.061-0.698 0.117-1.489 0.055-0.798 0.087-1.831 0.095-3.1 0.015-1.27-0.017-2.61-0.096-4.021v0l2.203-0.374c0.139 2.463 0.405 4.277 0.797 5.443 0.4 1.166 1.054 1.947 1.965 2.344 0.91 0.389 2.287 0.532 4.131 0.428v0c2.07-0.117 3.7-0.693 4.89-1.728 1.197-1.042 1.748-2.402 1.653-4.079v0c-0.055-0.985-0.441-1.851-1.158-2.599-0.717-0.754-1.554-1.385-2.51-1.892-0.95-0.507-2.354-1.186-4.211-2.037v0c-1.76-0.789-3.204-1.522-4.331-2.199-1.127-0.684-2.088-1.515-2.885-2.492-0.796-0.977-1.232-2.137-1.307-3.482v0c-0.096-1.711 0.315-3.293 1.235-4.747 0.926-1.454 2.229-2.633 3.907-3.535 1.679-0.896 3.57-1.403 5.673-1.522v0c1.318-0.074 2.541-0.053 3.67 0.064 1.128 0.117 2.024 0.253 2.687 0.409 0.67 0.163 1.09 0.272 1.261 0.33v0l0.166 0.291c-0.022 0.195-0.08 0.659-0.172 1.392-0.093 0.726-0.183 1.736-0.27 3.03-0.094 1.294-0.153 2.616-0.177 3.966v0l-1.916 0.308-0.303-0.233c0.026-0.135 0.042-0.44 0.048-0.914 0.006-0.481-0.008-1.035-0.043-1.66v0c-0.098-1.737-0.595-2.911-1.491-3.522-0.889-0.611-2.435-0.854-4.638-0.73v0c-1.804 0.102-3.266 0.638-4.386 1.609-1.114 0.971-1.633 2.129-1.558 3.473v0c0.074 1.318 0.704 2.428 1.891 3.329 1.193 0.908 2.92 1.875 5.181 2.903v0c2.198 0.965 3.876 1.768 5.034 2.411 1.158 0.643 2.196 1.465 3.113 2.469 0.911 1.004 1.406 2.194 1.484 3.572v0c0.104 1.844-0.322 3.527-1.278 5.05-0.95 1.516-2.323 2.738-4.121 3.667-1.791 0.922-3.871 1.45-6.24 1.584zM334.233 21.25l0.13-2.286c1.487-0.405 2.472-0.916 2.954-1.534 0.483-0.611 0.672-1.608 0.57-2.99v0l-1.491-20.677c-0.078-1.05-0.254-1.749-0.527-2.096-0.273-0.341-0.771-0.484-1.496-0.43v0l-1.658 0.223-0.115-0.192 0.178-2.189c0.425-0.032 0.756-0.04 0.991-0.024v0c1.973-0.08 3.468-0.158 4.485-0.234v0c1.383-0.103 3.13-0.384 5.242-0.841v0l-0.034 2.238c-0.972 0.233-1.655 0.481-2.05 0.745-0.395 0.257-0.646 0.663-0.752 1.219-0.106 0.549-0.146 1.452-0.119 2.706v0l0.295 8 8.281-0.566c2.068-0.154 4.485-0.501 7.253-1.042v0l-0.618-8.959c-0.078-1.05-0.254-1.749-0.527-2.097-0.279-0.34-0.778-0.484-1.496-0.43v0c-0.459 0.034-1.015 0.109-1.668 0.225v0l-0.114-0.192 0.187-2.19c0.361 0.006 1.019-0.009 1.972-0.047 0.953-0.038 1.908-0.092 2.866-0.163v0c1.576-0.117 3.532-0.414 5.87-0.889v0l-0.033 2.239c-1.198 0.25-1.999 0.58-2.403 0.991-0.397 0.411-0.577 1.093-0.54 2.046v0c0.084 3.724 0.217 7.715 0.401 11.973 0.184 4.265 0.357 7.481 0.518 9.648v0c0.09 1.21 0.3 2.01 0.63 2.4 0.323 0.39 0.91 0.554 1.762 0.491v0c0.399-0.03 1.136-0.135 2.212-0.316v0l0.105 0.193-0.27 2.296c-0.459 0.034-0.822 0.045-1.091 0.032v0c-2.166 0.095-3.824 0.185-4.974 0.27v0l-5.656 0.522 0.273-2.247c1.081-0.114 1.868-0.323 2.36-0.627 0.486-0.297 0.802-0.815 0.947-1.555 0.145-0.74 0.162-1.864 0.05-3.373v0l-0.554-7.429-7.493 0.508c-0.815 0.094-1.961 0.236-3.437 0.427-1.47 0.19-3.036 0.43-4.7 0.721v0l0.468 8.83c0.1 1.343 0.313 2.226 0.638 2.65 0.332 0.423 0.924 0.603 1.775 0.539v0c0.392-0.029 1.126-0.134 2.203-0.314v0l0.115 0.192-0.271 2.296c-0.302-0.011-0.863-0.003-1.682 0.025-0.827 0.028-1.666 0.074-2.517 0.138v0c-1.509 0.112-3.12 0.299-4.832 0.56-1.719 0.262-2.59 0.457-2.613 0.586zM384.329 17.128c-2.655 0.253-5.075-0.159-7.26-1.236-2.186-1.084-3.964-2.726-5.332-4.925-1.362-2.201-2.184-4.774-2.465-7.721v0c-0.307-3.212 0.124-6.207 1.292-8.984 1.175-2.771 2.928-5.038 5.258-6.8 2.33-1.756 4.985-2.776 7.965-3.061v0c2.721-0.26 5.191 0.147 7.41 1.222 2.219 1.081 4.029 2.709 5.429 4.886 1.394 2.184 2.231 4.749 2.512 7.696v0c0.307 3.212-0.14 6.215-1.34 9.008-1.207 2.794-2.991 5.074-5.354 6.84-2.364 1.759-5.068 2.784-8.115 3.075zM385.613 14.474c2.064-0.197 3.847-0.913 5.35-2.148 1.503-1.228 2.607-2.854 3.312-4.877 0.698-2.015 0.929-4.268 0.691-6.756v0c-0.266-2.787-0.976-5.207-2.13-7.261-1.161-2.059-2.642-3.615-4.443-4.668-1.801-1.047-3.8-1.466-5.997-1.256v0c-1.998 0.191-3.725 0.901-5.181 2.132-1.45 1.23-2.517 2.852-3.202 4.866-0.685 2.014-0.908 4.269-0.67 6.764v0c0.265 2.781 0.959 5.202 2.08 7.265 1.127 2.056 2.575 3.612 4.343 4.669 1.768 1.05 3.717 1.473 5.847 1.27zM406.036 14.771l0.091-2.305c1.408-0.421 2.312-0.912 2.712-1.474 0.4-0.555 0.521-1.538 0.361-2.949v0l-2.278-20.605c-0.118-1.047-0.321-1.738-0.607-2.075-0.286-0.33-0.789-0.454-1.511-0.372v0c-0.325 0.037-0.647 0.09-0.969 0.159-0.327 0.071-0.554 0.113-0.68 0.127v0l-0.121-0.187 0.094-2.195c0.395-0.011 1.134-0.061 2.217-0.149 1.084-0.089 2.165-0.194 3.245-0.317v0c1.014-0.115 2.163-0.271 3.449-0.47 1.287-0.192 2.19-0.335 2.709-0.427v0c3.405-0.385 6.09 0.073 8.055 1.374 1.972 1.3 3.117 3.358 3.435 6.173v0c0.207 1.828-0.126 3.631-0.999 5.407-0.88 1.77-2.131 3.26-3.752 4.469-1.614 1.209-3.372 1.921-5.273 2.136v0l-4.114 0.465 0.444 4.821c0.177 1.57 0.354 2.684 0.529 3.341 0.169 0.665 0.405 1.088 0.707 1.269 0.302 0.181 0.798 0.232 1.486 0.154v0c0.556-0.063 1.085-0.139 1.585-0.229 0.506-0.091 0.857-0.164 1.052-0.22v0l0.112 0.189-0.183 2.305c-0.328 0.004-0.928 0.038-1.8 0.103-0.872 0.065-1.781 0.151-2.728 0.258v0c-1.312 0.148-2.836 0.371-4.574 0.667-1.738 0.297-2.636 0.482-2.694 0.557zM417.153-1.199c1.924-0.546 3.314-1.515 4.17-2.907 0.849-1.391 1.148-3.196 0.897-5.415v0c-0.284-2.517-1.235-4.275-2.85-5.273-1.622-0.991-4.019-1.307-7.192-0.948v0c-0.59 0.067-0.947 0.141-1.072 0.222-0.118 0.08-0.176 0.285-0.172 0.613v0c0.171 4.187 0.481 8.708 0.929 13.561v0z" opacity="1" transform="matrix(1,0,0,1,0,0)" fill="#000000" class="undefined-text-0" data-fill-palette-color="primary" id="text-0"></path></svg></g></svg></g></svg></g></svg></g><g transform="matrix(1,0,0,1,170.05819010448658,0)"><svg viewBox="0 0 55.4036197910268 62.586000087180786" height="62.586000087180786" width="55.4036197910268"><g><svg xmlns="http://www.w3.org/2000/svg" xmlns:xlink="http://www.w3.org/1999/xlink" version="1.1" x="0" y="0" viewBox="6.890999794006348 1.1219940185546875 85.82400512695312 96.95000457763672" enable-background="new 0 0 100 100" xml:space="preserve" height="62.586000087180786" width="55.4036197910268" class="icon-icon-0" data-fill-palette-color="accent" id="icon-0"><g fill="#1e55b3" data-fill-palette-color="accent"><path fill="#1e55b3" d="M64.008 72.381c4.002-3.149 12.23-11.582 15.089-21.179-6.511-8.01-33.912-42.187-40.238-50.08C38.212 8.613 31.63 24.377 20.21 29.646c-5.247 2.56-10.477 4.156-12.467 4.721l39.077 47.32C51.235 80.263 59.958 75.56 64.008 72.381z" data-fill-palette-color="accent"></path><g fill="#1e55b3" data-fill-palette-color="accent"><g fill="#1e55b3" data-fill-palette-color="accent"><path fill="#1e55b3" d="M90.405 75.352c-6.5 3.781-13.381 7.281-20.674 9.929-8.632 3.134-19.05 6.681-22.386 7.664v5.127l43.046-15.479L90.405 75.352z" data-fill-palette-color="accent"></path><polygon fill="#1e55b3" points="6.891,35.865 6.891,50.088 45.703,97.945 45.736,82.902    " data-fill-palette-color="accent"></polygon></g><path fill="#1e55b3" d="M88.717 70.42c-5.018 3.936-11.386 7.921-18.278 11.363-6.521 3.266-20.879 7.668-23.093 8.339v1.144c3.686-1.09 13.036-3.898 21.237-7.013 9.104-3.457 22.12-11.628 22.12-11.628L88.717 70.42z" data-fill-palette-color="accent"></path></g><path fill="#1e55b3" d="M80.877 50.835l-0.114 0.403c-2.851 10.142-11.25 18.858-15.762 22.409-4.225 3.319-13.009 8.054-17.655 9.561v2.168c6.53-2.034 15.656-6.36 20.721-9.922 8.699-6.128 17.195-14.63 22.419-22.404l0.047 0.036C84.648 46.442 51.938 9.001 49.818 6.309c-0.719 1.357-1.368 2.265-2.422 2.887 10.832 13.508 28.598 35.647 33.217 41.314L80.877 50.835z" data-fill-palette-color="accent"></path><path fill="#1e55b3" d="M87.321 59.925c0 0-11.588 12.1-18.328 16.846-5.696 4.008-14.5 7.942-21.647 10.168v1.498c0.692-0.212 1.838-0.566 3.268-1.021 5.266-1.677 14.41-4.722 19.106-7.072 9.305-4.648 17.623-10.274 22.834-15.386 0.054-0.053 0.106-0.106 0.161-0.16L87.321 59.925z" data-fill-palette-color="accent"></path></g></svg></g></svg></g><g></g></svg></g><defs></defs></svg><rect width="395.52" height="106.77909200280618" fill="none" stroke="none" visibility="hidden"></rect></g></svg></g></svg>